<?xml version="1.0" encoding="UTF-8" standalone="no"?>
<!-- Generator: Adobe Illustrator 18.1.0, SVG Export Plug-In . SVG Version: 6.00 Build 0)  -->

<svg
   xmlns:dc="http://purl.org/dc/elements/1.1/"
   xmlns:cc="http://creativecommons.org/ns#"
   xmlns:rdf="http://www.w3.org/1999/02/22-rdf-syntax-ns#"
   xmlns:svg="http://www.w3.org/2000/svg"
   xmlns="http://www.w3.org/2000/svg"
   xmlns:sodipodi="http://sodipodi.sourceforge.net/DTD/sodipodi-0.dtd"
   xmlns:inkscape="http://www.inkscape.org/namespaces/inkscape"
   version="1.0"
   id="Layer_1"
   x="0px"
   y="0px"
   width="72px"
   height="72px"
   viewBox="0 0 72 72"
   enable-background="new 0 0 72 72"
   xml:space="preserve"
   sodipodi:docname="Marionetta.svg"
   inkscape:version="0.92.4 (5da689c313, 2019-01-14)"
   inkscape:export-filename="C:\Projects\Marionetta\Images\Marionetta.2000.png"
   inkscape:export-xdpi="2692.385"
   inkscape:export-ydpi="2692.385"><metadata
   id="metadata25"><rdf:RDF><cc:Work
       rdf:about=""><dc:format>image/svg+xml</dc:format><dc:type
         rdf:resource="http://purl.org/dc/dcmitype/StillImage" /><dc:title></dc:title></cc:Work></rdf:RDF></metadata><defs
   id="defs23" /><sodipodi:namedview
   pagecolor="#ffffff"
   bordercolor="#666666"
   borderopacity="1"
   objecttolerance="10"
   gridtolerance="10"
   guidetolerance="10"
   inkscape:pageopacity="0"
   inkscape:pageshadow="2"
   inkscape:window-width="1755"
   inkscape:window-height="1428"
   id="namedview21"
   showgrid="false"
   inkscape:zoom="52.444444"
   inkscape:cx="45.301493"
   inkscape:cy="61.440805"
   inkscape:window-x="3273"
   inkscape:window-y="5129"
   inkscape:window-maximized="0"
   inkscape:current-layer="Layer_1" />
<path
   d="m 36.6,43 c -0.4,0 -1.8,0 -3.6,0.3 -3.6,0.5 -4.9,-0.9 -7.1,0 -5.3,2.1 -12.3,0.6 -12.3,0.6 v 0 c -0.4,-0.1 -0.8,-0.5 -0.8,-1 0,-0.6 0.4,-1.2 1.1,-1.2 L 36,35.3 Z m 14.3,11.8 c -0.7,-2.3 0.7,-3.4 0.4,-7.1 -0.1,-1.8 0,-3.2 0,-3.6 l -7.7,0.2 5.9,22.1 v 0 c 0,0.6 0.5,1 1,1 0.6,0 1,-0.5 1,-1 0,0 0,0 0,0 -0.1,-0.1 1.1,-6.3 -0.6,-11.6 z M 59.1,26.1 59,26 55.2,23.1 53.3,21.6 51.4,20.2 c -0.1,0 -0.1,-0.1 -0.2,-0.1 C 50.8,19.9 50.3,19.8 49.8,19.9 49,19.7 48.1,19.5 47.1,19.4 V 17 c 0,-0.1 0,-0.2 0,-0.4 1.3,-0.6 2.3,-1.8 2.6,-3.3 0.1,0.1 0.2,0.1 0.3,0.1 0.6,0.1 1.3,-0.3 1.4,-0.9 0.1,-0.6 -0.3,-1.3 -0.9,-1.4 -0.1,0 -0.1,0 -0.2,0 L 51,8.6 C 51.6,5.8 49.4,3.8 46.6,3.3 43.8,2.7 41.4,3.7 40.8,6.5 l -0.6,4.7 c -0.5,2.3 0.8,4.6 2.8,5.4 0,0.1 0,0.2 0,0.3 v 2.4 c -1.8,0.2 -3.2,0.6 -4,1.1 -0.5,0 -1.2,-0.1 -2.1,-0.2 C 36,20.1 35,20 33.9,19.8 33.4,19.7 32.8,19.6 32.4,19.5 v 0 0 0 c 0.1,0 0.1,0 0.1,0.1 v 0 l -0.1,-0.1 c 0,0 0,0 0,0 v 0 0 c 0,0 -0.1,0 -0.1,-0.1 C 32.2,19.3 32,19.1 31.8,18.9 31,18.1 30.4,17 29.9,16 29.4,15 29,14 28.6,13.2 28.1,11.9 27.7,11 27.5,10.6 c 0,-0.1 0,-0.2 0.1,-0.3 0,-0.2 0,-0.4 0,-0.6 0,-0.4 0,-0.8 -0.1,-1.1 C 27.4,7.9 27.3,7.2 27.1,6.5 v 0 C 27,6 26.4,5.6 25.9,5.7 25.4,5.8 25,6.4 25.1,6.9 v 0 c 0.1,0.6 0.3,1.3 0.3,1.9 0,0 0,0.1 0,0.1 L 25.2,8.8 C 24.9,8.6 24.6,8.6 24.3,8.9 24,9.2 24,9.6 24.2,9.9 l 1.2,1.4 c 0.1,0.4 0.4,1.4 0.8,2.8 0.3,0.9 0.6,1.9 1.1,3 0.4,1.1 0.9,2.3 1.6,3.5 0.2,0.3 0.4,0.6 0.7,0.9 0.1,0.1 0.1,0.2 0.2,0.2 l 0.1,0.1 0.2,0.2 c 0.1,0.1 0.3,0.2 0.3,0.2 l 0.1,0.1 v 0 l 0.1,0.1 h 0.1 c 0.7,0.4 1.3,0.6 1.9,0.8 1.2,0.4 2.3,0.6 3.2,0.9 1.8,0.4 3.1,0.7 3.1,0.7 v 0 c 0.1,0 0.2,0 0.3,0 0.4,0 0.8,-0.1 1.2,-0.3 1.1,0.3 2.5,0.4 4.1,0.4 1.9,0 3.6,-0.2 5,-0.6 l 1.4,0.8 2,1.1 2.5,1.4 -3.5,3.9 c 0,0 0,0 0,0 l -1.6,1.2 c -0.3,0.2 -0.4,0.6 -0.3,0.9 0.2,0.4 0.6,0.6 1,0.4 l 0.2,-0.1 c 0,0.1 -0.1,0.2 -0.1,0.4 -0.1,0.4 -0.1,0.8 -0.2,1.1 0,0.4 -0.1,0.8 -0.1,1.1 v 0 c -0.1,0.6 0.4,1.1 0.9,1.1 0.6,0.1 1.1,-0.4 1.1,-0.9 0,-0.4 0.1,-0.7 0.1,-1.1 0,-0.4 0.1,-0.7 0.2,-1.1 0.1,-0.6 0.2,-1.2 0.4,-1.8 l 5.4,-4.5 C 59,28.1 59.1,28 59.1,28 c 0.8,-0.5 0.7,-1.4 0,-1.9 z"
   id="path2"
   inkscape:connector-curvature="0"
   style="fill:#ffd3b6" />
<path
   fill="#2B3B47"
   d="M42.1,9.8c0-0.3-0.2-0.5-0.5-0.6c-0.3,0-0.5,0.1-0.6,0.4l0,0l-0.1,0.8l0,0c0,0,0,0,0,0  c0,0.3,0.2,0.6,0.5,0.6c0.3,0,0.6-0.2,0.6-0.5c0,0,0,0,0,0l0,0L42.1,9.8L42.1,9.8z"
   id="path4" />
<path
   fill="#2B3B47"
   d="M47.5,10.7c0-0.3-0.2-0.5-0.5-0.6c-0.3,0-0.5,0.1-0.6,0.4l0,0l-0.1,0.8l0,0c0,0,0,0,0,0  c0,0.3,0.2,0.6,0.5,0.6c0.3,0,0.6-0.2,0.6-0.5c0,0,0,0,0,0l0,0L47.5,10.7L47.5,10.7z"
   id="path6" />
<path
   fill="#959DA3"
   d="M41.5,9.6c0-0.1,0-0.1-0.1-0.1c-0.1,0-0.1,0-0.1,0.1l0,0l0,0.2l0,0l0,0c0,0.1,0,0.1,0.1,0.1  c0.1,0,0.1,0,0.1-0.1l0,0l0,0L41.5,9.6L41.5,9.6z"
   id="path8" />
<path
   fill="#959DA3"
   d="M46.9,10.6c0-0.1,0-0.1-0.1-0.1c-0.1,0-0.1,0-0.1,0.1l0,0l0,0.2l0,0l0,0c0,0.1,0,0.1,0.1,0.1  c0.1,0,0.1,0,0.1-0.1l0,0l0,0L46.9,10.6L46.9,10.6z"
   id="path10" />
<path
   fill="#EDC0A2"
   d="M43.5,16.5c-1.1-0.2-2-0.8-2.8-1.5c0.7,1,1.8,1.8,3.1,2.1c2.6,0.5,5.2-1.2,5.7-3.8l0.1-0.2  C48.8,15.5,46.2,17,43.5,16.5z"
   id="path12" />
<path
   d="m 44.980932,14.476272 c 0,0 -0.7,0.8 -1.8,0.6 -1.1,-0.2 -1.5,-1.1 -1.5,-1.1 0,0 0.2,0 0.5,0 0.3,0 0.6,-0.2 0.8,-0.2 0.2,0 0.3,0.2 0.4,0.2 0,0 0.2,-0.1 0.4,-0.1 0.3,0.1 0.5,0.3 0.8,0.4 0.2,0.2 0.4,0.2 0.4,0.2 z m -31.6,29.2 v 0 c -0.4,-0.2 -0.8,-0.5 -0.8,-1 0,-0.6 0.4,-1.2 1.1,-1.2 l 0.9,-0.2 c -0.2,-0.1 -0.4,-0.2 -0.7,-0.2 0,0 -0.2,0 -0.5,0 -0.3,0 -3.9999998,0.4 -3.9999998,0.4 -0.6,0.1 -1.2,0.6 -1.5,1.4 -0.3,1 0.2,1.9 1,2.2 0,0 0.4,0.1 0.9,0.2 0.2999998,0.1 2.2999998,-0.1 2.6999998,0 0.3,0.1 0.5,0.1 0.5,0.1 v 0 c 0.1,0 0.1,0 0.2,0 0.8,0 1.6,-0.5 1.9,-1.2 -1,-0.3 -1.7,-0.5 -1.7,-0.5 z m 38.8,25.5 c 0,-0.1 0,-0.2 0,-0.2 v 0 c 0,0 -0.1,-0.2 -0.1,-0.5 -0.1,-0.3 0,-1.4 -0.1,-1.7 -0.1,-0.6 -0.2,-0.9 -0.2,-0.9 -0.1,-0.2 -0.2,-0.4 -0.3,-0.5 -0.1,0.6 -0.1,1 -0.1,1 0,0 0,0 0,0 0,0.6 -0.4,1 -1,1 -0.6,0 -1,-0.4 -1,-1 v 0 l -0.3,-1.1 c -0.4,0.3 -0.7,0.8 -0.7,1.2 0,0 -0.2,2.7 -0.2,3 0,0.3 0.1,0.5 0.1,0.5 0.1,1.1 1.2,1.7 2.3,1.5 0.9,-0.2 1.8,-1.3 1.6,-2.3 z m 0.7,-33.1 c 0,0.2 0,0.4 -0.1,0.6 -0.1,0.6 -0.6,1 -1.1,0.9 -0.6,-0.1 -1,-0.6 -0.9,-1.1 v 0 c 0,-0.4 0.1,-0.8 0.1,-1.1 0.1,-0.4 0.1,-0.8 0.2,-1.1 0,-0.1 0,-0.2 0.1,-0.3 0,0 0,0 0,0 l -0.2,-0.1 c -0.4,0.2 -0.8,0 -1,-0.4 -0.1,-0.3 0,-0.6 0.1,-0.8 -0.1,-0.1 -0.2,-0.2 -0.2,-0.2 -0.2,-0.3 -0.3,-1.4 -0.3,-1.8 0.1,-1.1 0.4,-2.6 0.9,-4 0.1,-0.1 0.1,-0.3 0.2,-0.4 0,0 0,-0.1 0,-0.1 0,-0.1 0.1,-0.2 0.1,-0.3 0,-0.3 0.1,-0.5 0.1,-0.8 0,-0.7 -0.5,-1.5 -1,-2 v -2.9 c 0,-0.4 -0.3,-0.8 -0.8,-0.8 -0.5,0 -0.8,0.3 -0.8,0.8 v 2.2 c -1.6,0 -5.9,0 -7.7,0 l -0.2,-2.2 c 0,-0.4 -0.4,-0.7 -0.8,-0.7 -0.4,0 -0.7,0.4 -0.7,0.8 l 0.2,2.7 c -0.6,0.6 -1.2,1.4 -1.2,2.2 0,0.8 0.2,1.4 0.4,1.9 0.4,1.4 0.7,2.8 0.8,3.8 0,0.3 0,1.4 -0.2,1.7 0,0 0,0.1 -0.1,0.1 -6.4,4.3 -14.3,0.2 -13.9,4 0.4,3.2 2.3,3.7 6.2,5.8 5.2,2.8 0,8.8 6.7,9.1 6.7,0.3 3.7,-5.2 8.7,-4.2 5.1,1.1 7,6.2 11,2.3 3.1,-2.5 -1.3,-9.3 -4.6,-13.6 z"
   id="path14"
   style="fill:#000080"
   inkscape:connector-curvature="0" />
<path
   d="m 54.78602,17.428388 c -1,-3.3 -0.7,-7 -2.8,-11.6999982 -0.1,-0.3 -0.2,-0.5 -0.4,-0.8 0,0 0,-0.1 -0.1,-0.1 0,0 0,-0.1 -0.1,-0.1 -0.5,-0.8 -1.1,-1.5 -1.8,-2 -0.3,-0.2 -1.4,-0.7 -1.7,-0.8 -0.3,-0.1 -0.9,-0.2 -0.9,-0.2 0,0 0,0 0,0 v 0 c -0.3,-0.1 -0.7,-0.1 -1,-0.1 -0.3,0 -1.6,0.2 -1.9,0.3 -2.1,0.7 -3.9,2.8 -4.2,4.4 0,0.1 -0.1,0.2 -0.1,0.3 -1,6.6999982 0.7,11.4999982 0.7,11.4999982 0.4,0.4 1.5,0.6 2.5,0.4 v -1.7 c 0,-0.1 0,-0.2 0,-0.3 -2.1,-0.9 -3.3,-3.1 -2.8,-5.4 l 0.4,-2.6999982 c 1.9,0 6.3,-0.4 6.6,-2.4 0,0 1.3,5.2999982 3.6,5.2999982 0.1,0 0.1,0 0.2,0 0.3,0.3 0.5,0.7 0.4,1.1 -0.1,0.6 -0.8,1.1 -1.4,0.9 -0.1,0 -0.2,-0.1 -0.3,-0.1 -0.3,1.5 -1.3,2.7 -2.6,3.3 0,0.1 0,0.2 0,0.4 v 1.6 c 3.4,0.6 8.4,1.2 7.7,-1.1 z"
   id="path16"
   inkscape:connector-curvature="0"
   style="fill:#68442a"
   inkscape:export-xdpi="3717.25"
   inkscape:export-ydpi="3717.25" />
<path
   fill="#E5AB83"
   d="M43.6,12.9c-0.1,0-0.1,0-0.2,0c-0.3-0.1-0.6-0.3-0.8-0.6c0-0.1,0-0.2,0.1-0.2c0.1,0,0.2,0,0.2,0.1  c0.1,0.2,0.3,0.3,0.5,0.4c0.2,0,0.5,0,0.6-0.2c0.1-0.1,0.2-0.1,0.3,0c0.1,0.1,0.1,0.2,0,0.3C44.1,12.8,43.8,12.9,43.6,12.9z   M46.4,8.4c-0.2,0.1-0.2,0.3-0.1,0.4C46.4,9,46.5,9.1,46.7,9c0,0,0,0,0.1,0c0,0,0.1-0.1,0.1-0.1c0.1,0,0.3-0.1,0.4,0  c0.2,0,0.3,0.1,0.4,0.2c0.1,0.1,0.1,0.2,0.1,0.2l0,0c0,0.1,0.1,0.1,0.2,0.1c0.1,0,0.1-0.1,0.1-0.2c0,0,0-0.1-0.1-0.3  c-0.1-0.1-0.3-0.3-0.5-0.4c-0.2-0.1-0.5-0.1-0.7,0c-0.1,0-0.2,0-0.2,0C46.5,8.4,46.5,8.4,46.4,8.4C46.4,8.4,46.4,8.4,46.4,8.4z"
   id="path18" />
<path
   style="fill:#ff0000"
   d="m 42.988689,13.785592 c -0.2,0 -0.498828,0.199219 -0.798828,0.199219 h -0.5 c 0,0 0.4,0.901562 1.5,1.101562 1.1,0.2 1.798828,-0.601562 1.798828,-0.601562 0,0 -0.198437,7.81e-4 -0.398437,-0.199219 -0.3,-0.1 -0.500781,-0.30039 -0.800781,-0.40039 -0.2,0 -0.400391,0.09961 -0.400391,0.09961 -0.1,0 -0.200391,-0.199219 -0.400391,-0.199219 z"
   id="path14-4"
   inkscape:connector-curvature="0" /></svg>